<svg width="24" height="26" viewBox="0 0 24 26" fill="none" xmlns="http://www.w3.org/2000/svg">
<path d="M21.3333 1.02988H2.66667C1.2 1.02988 0 2.22988 0 3.69654V22.3632C0 23.8299 1.2 25.0299 2.66667 25.0299H21.3333C22.8 25.0299 24 23.8299 24 22.3632V3.69654C24 2.22988 22.8 1.02988 21.3333 1.02988Z" fill="#0063A3"/>
<g clip-path="url(#clip0_5845_81570)">
<path d="M19 13.9705H5C4.45 13.9705 4 13.5205 4 12.9705C4 12.4205 4.45 11.9705 5 11.9705H19C19.55 11.9705 20 12.4205 20 12.9705C20 13.5205 19.55 13.9705 19 13.9705Z" fill="white"/>
</g>
<defs>
<clipPath id="clip0_5845_81570">
<rect width="24" height="24" fill="white" transform="translate(0 0.970474)"/>
</clipPath>
</defs>
</svg>
