<?xml version="1.0" encoding="UTF-8"?>
<svg width="400px" height="400px" viewBox="0 0 400 400" xmlns="http://www.w3.org/2000/svg" xmlns:xlink="http://www.w3.org/1999/xlink" version="1.1">
 <!-- Generated by Pixelmator Pro 2.0.5 -->
 <g id="New-Group">
  <path id="Shape" d="M197.091 258.762 C194.23 258.926 190.958 258.755 189.819 258.382 188.68 258.008 186.636 257.12 185.276 256.408 183.916 255.697 181.614 253.875 180.16 252.359 178.707 250.844 176.968 248.287 176.297 246.677 175.625 245.068 174.833 241.536 174.536 238.83 174.24 236.123 174.419 230.563 174.935 226.474 175.452 222.385 176.752 216.51 177.826 213.417 178.9 210.325 181.3 205.233 183.161 202.102 185.021 198.97 189.511 193.272 193.139 189.44 196.767 185.607 204.289 178.451 209.856 173.538 215.422 168.624 222.764 161.78 226.172 158.329 230.255 154.193 233.353 150.11 235.258 146.349 237.931 141.076 238.15 140.077 238.15 133.151 238.15 126.371 237.895 125.141 235.472 120.22 233.855 116.936 231.147 113.24 228.635 110.89 226.347 108.75 222.142 105.907 219.289 104.573 216.206 103.13 211.647 101.837 208.043 101.385 204.541 100.945 199.157 100.92 195.285 101.325 191.6 101.711 186.377 102.876 183.678 103.915 180.306 105.214 177.313 107.237 174.115 110.38 171.554 112.896 168.083 117.425 166.402 120.444 164.721 123.463 162.477 128.11 161.417 130.77 160.357 133.43 158.496 138.249 157.281 141.479 156.067 144.709 153.745 148.904 152.122 150.801 150.498 152.698 147.675 155.012 145.849 155.944 144.022 156.876 140.596 157.838 138.234 158.081 135.496 158.364 132.291 158.045 129.387 157.201 126.524 156.368 123.43 154.641 121.051 152.548 118.971 150.716 116.308 147.291 115.134 144.935 113.536 141.726 113 139.378 113 135.576 113 132.785 113.749 127.561 114.665 123.967 115.581 120.373 117.636 114.678 119.231 111.311 120.827 107.943 123.748 102.923 125.724 100.155 127.699 97.387 132.18 92.401 135.681 89.075 139.182 85.749 144.34 81.536 147.143 79.712 149.945 77.888 154.655 75.171 157.608 73.675 160.561 72.179 165.951 70.02 169.586 68.876 173.221 67.733 179.168 66.295 182.803 65.681 186.438 65.067 194.83 64.564 201.453 64.564 209.044 64.564 216.525 65.085 221.692 65.973 226.2 66.747 232.271 68.169 235.182 69.133 238.093 70.096 242.883 72.023 245.827 73.414 248.772 74.805 253.639 77.606 256.643 79.638 259.648 81.67 263.721 84.872 265.694 86.753 267.668 88.633 270.922 92.284 272.927 94.866 274.931 97.447 277.855 102.093 279.425 105.191 280.995 108.289 283.102 113.906 284.106 117.674 285.388 122.478 285.953 127.041 285.998 132.956 286.039 138.385 285.541 143.565 284.599 147.497 283.794 150.857 281.84 156.061 280.256 159.062 278.672 162.063 275.528 166.979 273.268 169.986 271.008 172.993 265.881 178.569 261.874 182.377 257.867 186.185 250.013 193.39 244.421 198.388 238.828 203.385 232.083 209.789 229.432 212.619 226.781 215.448 223.658 219.39 222.493 221.378 221.328 223.366 219.092 229.941 217.524 235.99 215.838 242.496 213.729 248.517 212.361 250.729 210.813 253.233 208.766 255.13 206.17 256.466 203.634 257.771 200.491 258.566 197.091 258.762 Z" fill="#000000" fill-opacity="1" stroke="none"/>
  <path id="Shape-1" d="M199.253 335.507 C196.453 335.741 192.756 335.46 190.592 334.848 188.516 334.261 185.105 332.778 183.012 331.551 180.919 330.325 178.075 327.948 176.691 326.269 175.308 324.591 173.607 321.55 172.913 319.513 172.214 317.46 171.655 313.019 171.659 309.554 171.665 304.714 172.111 302.345 173.63 299.084 174.709 296.766 176.997 293.465 178.713 291.748 180.43 290.032 183.911 287.656 186.449 286.469 190.132 284.746 192.315 284.309 197.259 284.305 201.314 284.301 204.819 284.826 207.403 285.823 209.575 286.66 213.119 289.077 215.279 291.192 217.438 293.307 219.868 296.448 220.679 298.171 221.489 299.894 222.461 303.239 222.838 305.605 223.232 308.076 223.188 312.017 222.735 314.864 222.301 317.59 221.046 321.361 219.945 323.244 218.844 325.127 216.728 327.696 215.242 328.952 213.757 330.208 210.651 332.105 208.34 333.168 206.029 334.23 201.94 335.283 199.253 335.507 Z" fill="#000000" fill-opacity="1" stroke="none"/>
 </g>
</svg>
