<svg width="25" height="24" viewBox="0 0 25 24" fill="none" xmlns="http://www.w3.org/2000/svg">
<path d="M21.3333 0H2.66667C1.2 0 0 1.2 0 2.66667V21.3333C0 22.8 1.2 24 2.66667 24H21.3333C22.8 24 24 22.8 24 21.3333V2.66667C24 1.2 22.8 0 21.3333 0Z" fill="#0063A3"/>
<path d="M10 18C9.74 18 9.49 17.9 9.29 17.71L5.29 13.71C5.10302 13.523 4.99798 13.2694 4.99798 13.005C4.99798 12.7406 5.10302 12.487 5.29 12.3C5.47698 12.113 5.73057 12.008 5.995 12.008C6.25942 12.008 6.51302 12.113 6.7 12.3L9.99 15.59L19.28 6.3C19.467 6.11302 19.7206 6.00798 19.985 6.00798C20.2494 6.00798 20.503 6.11302 20.69 6.3C20.877 6.48698 20.982 6.74057 20.982 7.005C20.982 7.26943 20.877 7.52302 20.69 7.71L10.69 17.71C10.49 17.91 10.24 18 9.98 18H10Z" fill="white"/>
</svg>
