<svg width="16" height="15" viewBox="0 0 16 15" fill="none" xmlns="http://www.w3.org/2000/svg">
<path d="M14.9468 0.453354C14.4268 -0.0666455 13.5868 -0.0666455 13.0668 0.453354L1.06676 12.4534C0.546758 12.9734 0.546758 13.8134 1.06676 14.3334C1.33342 14.6 1.66676 14.72 2.01342 14.72C2.36009 14.72 2.69342 14.5867 2.96009 14.3334L14.9601 2.33335C15.4801 1.81335 15.4801 0.973354 14.9601 0.453354H14.9468ZM13.7468 7.00002L7.61342 13.1334C7.02676 13.72 7.44009 14.72 8.26676 14.72H14.4001C14.9201 14.72 15.3334 14.3067 15.3334 13.7867V7.65336C15.3334 6.82669 14.3334 6.41336 13.7468 7.00002Z" fill="#252A2E"/>
</svg>
