<svg width="24" height="24" viewBox="0 0 24 24" fill="none" xmlns="http://www.w3.org/2000/svg">
<path d="M12 9.03C12.55 9.03 13 8.58 13 8.03C13 7.48 12.55 7.03 12 7.03C11.45 7.03 11 7.48 11 8.03C11 8.58 11.45 9.03 12 9.03ZM12 22C17.52 22 22 17.52 22 12C22 6.48 17.52 2 12 2C6.48 2 2 6.48 2 12C2 17.52 6.48 22 12 22ZM12 4C16.41 4 20 7.59 20 12C20 16.41 16.41 20 12 20C7.59 20 4 16.41 4 12C4 7.59 7.59 4 12 4ZM12 17C12.55 17 13 16.55 13 16V12C13 11.45 12.55 11 12 11C11.45 11 11 11.45 11 12V16C11 16.55 11.45 17 12 17Z" fill="#252A2E"/>
</svg>
