<svg width="24" height="24" viewBox="0 0 24 24" fill="none" xmlns="http://www.w3.org/2000/svg">
<path d="M11.02 9.35999V13.5C11.02 14.05 11.47 14.5 12.02 14.5C12.57 14.5 13.02 14.05 13.02 13.5V9.35999C13.02 8.80999 12.57 8.35999 12.02 8.35999C11.47 8.35999 11.02 8.80999 11.02 9.35999ZM12.03 16C11.48 16 11.03 16.45 11.03 17C11.03 17.55 11.48 18 12.03 18C12.58 18 13.03 17.55 13.03 17C13.03 16.45 12.58 16 12.03 16ZM21.24 17.5L13.71 4.48999C12.94 3.15999 11.02 3.15999 10.25 4.48999L2.71998 17.5C1.94998 18.83 2.90998 20.5 4.44998 20.5H19.51C21.05 20.5 22.01 18.83 21.24 17.5ZM4.44998 18.5L11.98 5.48999L19.51 18.5H4.44998Z" fill="#252A2E"/>
</svg>
