<svg width="24" height="24" viewBox="0 0 24 24" fill="none" xmlns="http://www.w3.org/2000/svg">
<path d="M11.39 5.05C9.84 5.29 8.59 6.41 8.16 7.88C8 8.44 8.4 9 8.98 9H9.28C9.67 9 9.98 8.72 10.1 8.35C10.43 7.4 11.46 6.77 12.57 7.08C13.27 7.28 13.83 7.89 13.96 8.61C14.09 9.31 13.87 9.97 13.41 10.41L12.17 11.67C11.75 12.09 11.42 12.61 11.22 13.19C11.08 13.6 11 14.04 11 14.5V15H13C13 14.54 13.05 14.18 13.13 13.86C13.31 13.14 13.67 12.68 14.17 12.17L15.07 11.25C16.09 10.23 16.44 8.48 15.26 6.85C14.36 5.6 12.91 4.81 11.39 5.05ZM12 17C11.45 17 11 17.45 11 18C11 18.55 11.45 19 12 19C12.55 19 13 18.55 13 18C13 17.45 12.55 17 12 17ZM12 2C6.48 2 2 6.48 2 12C2 17.52 6.48 22 12 22C17.52 22 22 17.52 22 12C22 6.48 17.52 2 12 2ZM12 20C7.59 20 4 16.41 4 12C4 7.59 7.59 4 12 4C16.41 4 20 7.59 20 12C20 16.41 16.41 20 12 20Z" fill="#6A6E79"/>
</svg>
