<svg width="24" height="24" viewBox="0 0 24 24" fill="none" xmlns="http://www.w3.org/2000/svg">
<path d="M12 14.97C11.45 14.97 11 15.42 11 15.97C11 16.52 11.45 16.97 12 16.97C12.55 16.97 13 16.52 13 15.97C13 15.42 12.55 14.97 12 14.97ZM12 2C6.48 2 2 6.48 2 12C2 17.52 6.48 22 12 22C17.52 22 22 17.52 22 12C22 6.48 17.52 2 12 2ZM12 20C7.59 20 4 16.41 4 12C4 7.59 7.59 4 12 4C16.41 4 20 7.59 20 12C20 16.41 16.41 20 12 20ZM12 7C11.45 7 11 7.45 11 8V12C11 12.55 11.45 13 12 13C12.55 13 13 12.55 13 12V8C13 7.45 12.55 7 12 7Z" fill="white"/>
</svg>
