<svg width="24" height="24" viewBox="0 0 24 24" fill="none" xmlns="http://www.w3.org/2000/svg">
<path d="M17.68 7.87C17.29 7.48 16.66 7.48 16.27 7.87L9.97 14.17L7.1 11.28C6.71 10.89 6.08 10.89 5.69 11.28C5.3 11.67 5.29 12.3 5.69 12.69L9.26 16.3C9.45 16.49 9.7 16.6 9.97 16.6C10.24 16.6 10.49 16.49 10.68 16.31L17.69 9.3C18.08 8.91 18.08 8.28 17.69 7.89L17.68 7.87ZM12 2C6.48 2 2 6.48 2 12C2 17.52 6.48 22 12 22C17.52 22 22 17.52 22 12C22 6.48 17.52 2 12 2ZM12 20C7.59 20 4 16.41 4 12C4 7.59 7.59 4 12 4C16.41 4 20 7.59 20 12C20 16.41 16.41 20 12 20Z" fill="white"/>
</svg>
