<svg xmlns="http://www.w3.org/2000/svg" width="24" height="24" fill="currentColor" class="mi-solid mi-help" viewBox="0 0 24 24">
  <path d="M12 2C6.48 2 2 6.48 2 12s4.48 10 10 10 10-4.48 10-10S17.52 2 12 2Zm0 16.25a1.25 1.25 0 1 1 0-2.5 1.25 1.25 0 0 1 0 2.5Zm2.82-6.72-.77.79c-.42.43-.69.78-.83 1.34-.07.28-.1.58-.1.92v.25H10.9v-.68c0-.41.07-.81.2-1.21.18-.52.48-1.01.87-1.4l1.07-1.09c.35-.33.49-.81.4-1.32-.09-.52-.5-.97-1.01-1.12a1.467 1.467 0 0 0-1.81.93c-.14.44-.51.73-.94.73h-.26c-.31 0-.59-.14-.78-.39-.19-.25-.25-.58-.16-.89a3.72 3.72 0 0 1 2.97-2.61c.17-.03.34-.04.51-.04 1.15 0 2.3.63 3.06 1.68 1.13 1.57.72 3.19-.19 4.1Z"/>
</svg>