<svg width="20" height="20" viewBox="0 0 20 20" fill="none" xmlns="http://www.w3.org/2000/svg">
<path d="M15.68 5.87C15.29 5.48 14.66 5.48 14.27 5.87L7.97 12.17L5.1 9.28C4.71 8.89 4.08 8.89 3.69 9.28C3.3 9.67 3.29 10.3 3.69 10.69L7.26 14.3C7.45 14.49 7.7 14.6 7.97 14.6C8.24 14.6 8.49 14.49 8.68 14.31L15.69 7.3C16.08 6.91 16.08 6.28 15.69 5.89L15.68 5.87ZM10 0C4.48 0 0 4.48 0 10C0 15.52 4.48 20 10 20C15.52 20 20 15.52 20 10C20 4.48 15.52 0 10 0ZM10 18C5.59 18 2 14.41 2 10C2 5.59 5.59 2 10 2C14.41 2 18 5.59 18 10C18 14.41 14.41 18 10 18Z" fill="#ffffff"/>
</svg>
