<svg width="20" height="20" viewBox="0 0 20 20" fill="none" xmlns="http://www.w3.org/2000/svg">
<path d="M10 0C4.48 0 0 4.48 0 10C0 15.52 4.48 20 10 20C15.52 20 20 15.52 20 10C20 4.48 15.52 0 10 0ZM10 18C5.59 18 2 14.41 2 10C2 5.59 5.59 2 10 2C14.41 2 18 5.59 18 10C18 14.41 14.41 18 10 18ZM14.3 5.71C13.91 5.32 13.28 5.32 12.89 5.71L10.01 8.59L7.13 5.71C6.74 5.32 6.11 5.32 5.72 5.71C5.33 6.1 5.33 6.73 5.72 7.12L8.6 10L5.72 12.88C5.33 13.27 5.33 13.9 5.72 14.29C5.92 14.49 6.17 14.58 6.43 14.58C6.69 14.58 6.94 14.48 7.14 14.29L10.02 11.41L12.9 14.29C13.1 14.49 13.35 14.58 13.61 14.58C13.87 14.58 14.12 14.48 14.32 14.29C14.71 13.9 14.71 13.27 14.32 12.88L11.44 10L14.32 7.12C14.71 6.73 14.71 6.1 14.32 5.71H14.3Z" fill="#ffffff"/>
</svg>
