<svg xmlns="http://www.w3.org/2000/svg" width="24" height="24" fill="currentColor" class="mi-solid mi-battery-charging-vertical" viewBox="0 0 24 24">
  <path d="M15.67 4H14V3c0-.55-.45-1-1-1h-2c-.55 0-1 .45-1 1v1H8.33C7.6 4 7 4.6 7 5.33v15.33C7 21.4 7.6 22 8.34 22h7.32c.74 0 1.34-.6 1.34-1.33V5.33C17 4.6 16.4 4 15.67 4M15 20H9V6h6zM12.95 7.83a.29.29 0 0 0-.54-.18c-1.25 2.2-2.2 3.85-2.83 4.97-.01.02-.29.39.16.39h1.75l-.45 3.17c-.03.18.11.33.29.33.11 0 .2-.05.25-.15.28-.48 1.23-2.16 2.88-5.03.11-.24 0-.33-.2-.33H12.5z"/>
</svg>