<svg width="24" height="24" viewBox="0 0 24 24" fill="none" xmlns="http://www.w3.org/2000/svg">
<g id="ic/core/placeholder">
<g id="shape">
<path d="M6 2.75C5.55795 2.75 5.1383 2.83784 4.75614 2.99632C4.37352 3.15498 3.93472 2.97343 3.77605 2.59081C3.61739 2.20819 3.79894 1.76939 4.18156 1.61073C4.74266 1.37805 5.35732 1.25 6 1.25H7.5C7.91421 1.25 8.25 1.58579 8.25 2C8.25 2.41421 7.91421 2.75 7.5 2.75H6Z" fill="white"/>
<path d="M9.75 2C9.75 1.58579 10.0858 1.25 10.5 1.25H13.5C13.9142 1.25 14.25 1.58579 14.25 2C14.25 2.41421 13.9142 2.75 13.5 2.75H10.5C10.0858 2.75 9.75 2.41421 9.75 2Z" fill="white"/>
<path d="M15.75 2C15.75 1.58579 16.0858 1.25 16.5 1.25H18C18.6427 1.25 19.2573 1.37805 19.8184 1.61073C20.2011 1.76939 20.3826 2.20819 20.2239 2.59081C20.0653 2.97343 19.6265 3.15498 19.2439 2.99632C18.8617 2.83784 18.4421 2.75 18 2.75H16.5C16.0858 2.75 15.75 2.41421 15.75 2Z" fill="white"/>
<path d="M2.59081 3.77605C2.97343 3.93472 3.15498 4.37352 2.99632 4.75614C2.83784 5.1383 2.75 5.55795 2.75 6V7.5C2.75 7.91421 2.41421 8.25 2 8.25C1.58579 8.25 1.25 7.91421 1.25 7.5V6C1.25 5.35732 1.37805 4.74266 1.61073 4.18156C1.76939 3.79894 2.20819 3.61739 2.59081 3.77605Z" fill="white"/>
<path d="M21.4092 3.77605C21.7918 3.61739 22.2306 3.79894 22.3893 4.18156C22.622 4.74266 22.75 5.35732 22.75 6V7.5C22.75 7.91421 22.4142 8.25 22 8.25C21.5858 8.25 21.25 7.91421 21.25 7.5V6C21.25 5.55795 21.1622 5.1383 21.0037 4.75614C20.845 4.37352 21.0266 3.93472 21.4092 3.77605Z" fill="white"/>
<path d="M2 9.75C2.41421 9.75 2.75 10.0858 2.75 10.5V13.5C2.75 13.9142 2.41421 14.25 2 14.25C1.58579 14.25 1.25 13.9142 1.25 13.5V10.5C1.25 10.0858 1.58579 9.75 2 9.75Z" fill="white"/>
<path d="M22 9.75C22.4142 9.75 22.75 10.0858 22.75 10.5V13.5C22.75 13.9142 22.4142 14.25 22 14.25C21.5858 14.25 21.25 13.9142 21.25 13.5V10.5C21.25 10.0858 21.5858 9.75 22 9.75Z" fill="white"/>
<path d="M2 15.75C2.41421 15.75 2.75 16.0858 2.75 16.5V18C2.75 18.4421 2.83784 18.8617 2.99632 19.2439C3.15498 19.6265 2.97343 20.0653 2.59081 20.2239C2.20819 20.3826 1.76939 20.2011 1.61073 19.8184C1.37805 19.2573 1.25 18.6427 1.25 18V16.5C1.25 16.0858 1.58579 15.75 2 15.75Z" fill="white"/>
<path d="M22 15.75C22.4142 15.75 22.75 16.0858 22.75 16.5V18C22.75 18.6427 22.622 19.2573 22.3893 19.8184C22.2306 20.2011 21.7918 20.3826 21.4092 20.2239C21.0266 20.0653 20.845 19.6265 21.0037 19.2439C21.1622 18.8617 21.25 18.4421 21.25 18V16.5C21.25 16.0858 21.5858 15.75 22 15.75Z" fill="white"/>
<path d="M3.77605 21.4092C3.93472 21.0266 4.37352 20.845 4.75614 21.0037C5.1383 21.1622 5.55795 21.25 6 21.25H7.5C7.91421 21.25 8.25 21.5858 8.25 22C8.25 22.4142 7.91421 22.75 7.5 22.75H6C5.35732 22.75 4.74266 22.622 4.18156 22.3893C3.79894 22.2306 3.61739 21.7918 3.77605 21.4092Z" fill="white"/>
<path d="M20.2239 21.4092C20.3826 21.7918 20.2011 22.2306 19.8184 22.3893C19.2573 22.622 18.6427 22.75 18 22.75H16.5C16.0858 22.75 15.75 22.4142 15.75 22C15.75 21.5858 16.0858 21.25 16.5 21.25H18C18.4421 21.25 18.8617 21.1622 19.2439 21.0037C19.6265 20.845 20.0653 21.0266 20.2239 21.4092Z" fill="white"/>
<path d="M9.75 22C9.75 21.5858 10.0858 21.25 10.5 21.25H13.5C13.9142 21.25 14.25 21.5858 14.25 22C14.25 22.4142 13.9142 22.75 13.5 22.75H10.5C10.0858 22.75 9.75 22.4142 9.75 22Z" fill="white"/>
<path d="M20.5303 4.59099C20.8232 4.2981 20.8232 3.82322 20.5303 3.53033C20.2374 3.23744 19.7626 3.23744 19.4697 3.53033L18.4735 4.52654C18.1806 4.81943 18.1806 5.29431 18.4735 5.5872C18.7664 5.88009 19.2412 5.88009 19.5341 5.5872L20.5303 4.59099Z" fill="white"/>
<path d="M17.5417 7.57962C17.8346 7.28672 17.8346 6.81185 17.5417 6.51896C17.2488 6.22606 16.7739 6.22606 16.481 6.51896L14.4886 8.51137C14.1957 8.80427 14.1957 9.27914 14.4886 9.57203C14.7815 9.86493 15.2564 9.86493 15.5493 9.57203L17.5417 7.57962Z" fill="white"/>
<path d="M13.5569 11.5645C13.8498 11.2716 13.8498 10.7967 13.5569 10.5038C13.264 10.2109 12.7891 10.2109 12.4962 10.5038L12 11L11.5038 10.5038C11.2109 10.2109 10.736 10.2109 10.4431 10.5038C10.1502 10.7967 10.1502 11.2716 10.4431 11.5645L10.9393 12.0607L10.5038 12.4962C10.2109 12.7891 10.2109 13.264 10.5038 13.5569C10.7967 13.8498 11.2716 13.8498 11.5645 13.5569L12 13.1213L12.4355 13.5569C12.7284 13.8498 13.2033 13.8498 13.4962 13.5569C13.7891 13.264 13.7891 12.7891 13.4962 12.4962L13.0607 12.0607L13.5569 11.5645Z" fill="white"/>
<path d="M9.57203 15.5493C9.86493 15.2564 9.86493 14.7815 9.57203 14.4886C9.27914 14.1957 8.80427 14.1957 8.51137 14.4886L6.51896 16.481C6.22606 16.7739 6.22606 17.2488 6.51896 17.5417C6.81185 17.8346 7.28672 17.8346 7.57962 17.5417L9.57203 15.5493Z" fill="white"/>
<path d="M5.5872 19.5341C5.88009 19.2412 5.88009 18.7664 5.5872 18.4735C5.2943 18.1806 4.81943 18.1806 4.52654 18.4735L3.53033 19.4697C3.23744 19.7626 3.23744 20.2374 3.53033 20.5303C3.82322 20.8232 4.2981 20.8232 4.59099 20.5303L5.5872 19.5341Z" fill="white"/>
<path d="M19.409 20.5303C19.7019 20.8232 20.1768 20.8232 20.4697 20.5303C20.7626 20.2374 20.7626 19.7626 20.4697 19.4697L19.4735 18.4735C19.1806 18.1806 18.7057 18.1806 18.4128 18.4735C18.1199 18.7664 18.1199 19.2412 18.4128 19.5341L19.409 20.5303Z" fill="white"/>
<path d="M16.4204 17.5417C16.7133 17.8346 17.1882 17.8346 17.481 17.5417C17.7739 17.2488 17.7739 16.7739 17.481 16.481L15.4886 14.4886C15.1957 14.1957 14.7209 14.1957 14.428 14.4886C14.1351 14.7815 14.1351 15.2564 14.428 15.5493L16.4204 17.5417Z" fill="white"/>
<path d="M8.45071 9.57203C8.7436 9.86493 9.21848 9.86493 9.51137 9.57203C9.80426 9.27914 9.80427 8.80427 9.51137 8.51137L7.51895 6.51896C7.22606 6.22606 6.75119 6.22606 6.45829 6.51896C6.1654 6.81185 6.1654 7.28672 6.45829 7.57962L8.45071 9.57203Z" fill="white"/>
<path d="M4.46588 5.5872C4.75877 5.88009 5.23364 5.88009 5.52654 5.5872C5.81943 5.29431 5.81943 4.81943 5.52654 4.52654L4.53033 3.53033C4.23744 3.23744 3.76256 3.23744 3.46967 3.53033C3.17677 3.82322 3.17678 4.2981 3.46967 4.59099L4.46588 5.5872Z" fill="white"/>
<path d="M9.05593 6.88903C9.35379 6.79879 9.67052 6.75 10 6.75H10.75C11.1642 6.75 11.5 6.41421 11.5 6C11.5 5.58579 11.1642 5.25 10.75 5.25H10C9.52156 5.25 9.05834 5.32097 8.621 5.45347C8.22458 5.57358 8.00058 5.9923 8.12069 6.38872C8.24079 6.78514 8.65952 7.00914 9.05593 6.88903Z" fill="white"/>
<path d="M13.25 5.25C12.8358 5.25 12.5 5.58579 12.5 6C12.5 6.41421 12.8358 6.75 13.25 6.75H14C14.3295 6.75 14.6462 6.79879 14.9441 6.88903C15.3405 7.00914 15.7592 6.78514 15.8793 6.38872C15.9994 5.9923 15.7754 5.57358 15.379 5.45347C14.9417 5.32097 14.4784 5.25 14 5.25H13.25Z" fill="white"/>
<path d="M6.88903 9.05593C7.00914 8.65952 6.78514 8.24079 6.38872 8.12069C5.9923 8.00058 5.57358 8.22458 5.45347 8.621C5.32097 9.05834 5.25 9.52156 5.25 10V10.75C5.25 11.1642 5.58579 11.5 6 11.5C6.41421 11.5 6.75 11.1642 6.75 10.75V10C6.75 9.67052 6.79879 9.35379 6.88903 9.05593Z" fill="white"/>
<path d="M18.5465 8.621C18.4264 8.22458 18.0077 8.00058 17.6113 8.12069C17.2149 8.24079 16.9909 8.65952 17.111 9.05593C17.2012 9.35379 17.25 9.67052 17.25 10V10.75C17.25 11.1642 17.5858 11.5 18 11.5C18.4142 11.5 18.75 11.1642 18.75 10.75V10C18.75 9.52156 18.679 9.05834 18.5465 8.621Z" fill="white"/>
<path d="M6.75 13.25C6.75 12.8358 6.41421 12.5 6 12.5C5.58579 12.5 5.25 12.8358 5.25 13.25V14C5.25 14.4784 5.32097 14.9417 5.45347 15.379C5.57358 15.7754 5.9923 15.9994 6.38872 15.8793C6.78514 15.7592 7.00914 15.3405 6.88903 14.9441C6.79879 14.6462 6.75 14.3295 6.75 14V13.25Z" fill="white"/>
<path d="M18.75 13.25C18.75 12.8358 18.4142 12.5 18 12.5C17.5858 12.5 17.25 12.8358 17.25 13.25V14C17.25 14.3295 17.2012 14.6462 17.111 14.9441C16.9909 15.3405 17.2149 15.7592 17.6113 15.8793C18.0077 15.9994 18.4264 15.7754 18.5465 15.379C18.679 14.9417 18.75 14.4784 18.75 14V13.25Z" fill="white"/>
<path d="M9.05593 17.111C8.65952 16.9909 8.24079 17.2149 8.12069 17.6113C8.00058 18.0077 8.22458 18.4264 8.621 18.5465C9.05834 18.679 9.52156 18.75 10 18.75H10.75C11.1642 18.75 11.5 18.4142 11.5 18C11.5 17.5858 11.1642 17.25 10.75 17.25H10C9.67052 17.25 9.35379 17.2012 9.05593 17.111Z" fill="white"/>
<path d="M15.379 18.5465C15.7754 18.4264 15.9994 18.0077 15.8793 17.6113C15.7592 17.2149 15.3405 16.9909 14.9441 17.111C14.6462 17.2012 14.3295 17.25 14 17.25H13.25C12.8358 17.25 12.5 17.5858 12.5 18C12.5 18.4142 12.8358 18.75 13.25 18.75H14C14.4784 18.75 14.9417 18.679 15.379 18.5465Z" fill="white"/>
</g>
</g>
</svg>
